<svg data-v-423bf9ae="" xmlns="http://www.w3.org/2000/svg" viewBox="0 0 458 90" class="iconLeft"><!----><!----><!----><g data-v-423bf9ae="" id="4adfb1f4-5a2c-45f0-9e71-54896116d3a8" fill="#121F8F" transform="matrix(5.405405219639779,0,0,5.405405219639779,105.77846212035254,17.27026938839147)"><path d="M4.37 6.58L3.05 6.58L3.05 10.50L0.78 10.50L0.78-0.42L4.37-0.42L4.37-0.42Q4.97-0.42 5.45-0.35L5.45-0.35L5.45-0.35Q5.94-0.28 6.46-0.07L6.46-0.07L6.46-0.07Q6.99 0.14 7.34 0.50L7.34 0.50L7.34 0.50Q7.70 0.85 7.93 1.48L7.93 1.48L7.93 1.48Q8.16 2.10 8.16 2.94L8.16 2.94L8.16 3.22L8.16 3.22Q8.16 4.26 7.83 4.96L7.83 4.96L7.83 4.96Q7.50 5.67 6.92 6.00L6.92 6.00L6.92 6.00Q6.33 6.33 5.73 6.45L5.73 6.45L5.73 6.45Q5.14 6.58 4.37 6.58L4.37 6.58ZM3.05 1.54L3.05 4.62L4.47 4.62L4.47 4.62Q5.87 4.62 5.87 3.15L5.87 3.15L5.87 3.01L5.87 3.01Q5.87 1.54 4.47 1.54L4.47 1.54L3.05 1.54ZM13.26 2.90L13.26 2.90L13.26 2.90Q13.41 2.90 13.47 2.91L13.47 2.91L13.47 5.04L13.09 5.04L13.09 5.04Q11.94 5.04 11.49 5.68L11.49 5.68L11.49 10.50L9.28 10.50L9.28 5.18L9.16 3.08L11.13 3.08L11.28 3.95L11.28 3.95Q12.03 2.90 13.26 2.90ZM21.06 10.50L19.07 10.50L18.93 9.73L18.93 9.73Q18.05 10.68 16.60 10.68L16.60 10.68L16.60 10.68Q15.43 10.68 14.88 10.06L14.88 10.06L14.88 10.06Q14.34 9.44 14.34 8.46L14.34 8.46L14.34 8.32L14.34 8.32Q14.34 7.20 15.02 6.66L15.02 6.66L15.02 6.66Q15.69 6.13 17.00 5.94L17.00 5.94L18.70 5.67L18.70 5.67Q18.69 5.10 18.47 4.84L18.47 4.84L18.47 4.84Q18.24 4.58 17.70 4.58L17.70 4.58L17.70 4.58Q16.70 4.58 16.70 5.53L16.70 5.53L14.62 5.53L14.62 5.40L14.62 5.40Q14.62 4.30 15.34 3.60L15.34 3.60L15.34 3.60Q16.07 2.90 17.77 2.90L17.77 2.90L17.77 2.90Q19.50 2.90 20.21 3.60L20.21 3.60L20.21 3.60Q20.92 4.30 20.92 5.73L20.92 5.73L20.92 8.40L21.06 10.50ZM17.42 8.89L17.42 8.89L17.42 8.89Q18.17 8.89 18.70 8.33L18.70 8.33L18.70 6.97L17.44 7.17L17.44 7.17Q16.53 7.32 16.53 8.05L16.53 8.05L16.53 8.13L16.53 8.13Q16.53 8.46 16.75 8.67L16.75 8.67L16.75 8.67Q16.97 8.89 17.42 8.89ZM24.57 10.50L22.36 10.50L22.36 3.08L24.57 3.08L24.57 10.50ZM22.30-0.31L24.63-0.31L24.63 2.03L22.30 2.03L22.30-0.31ZM29.02 9.00L29.02 9.00L29.02 9.00Q30.02 9.00 30.02 8.27L30.02 8.27L30.02 8.27Q30.02 7.92 29.78 7.76L29.78 7.76L29.78 7.76Q29.54 7.59 28.91 7.53L28.91 7.53L28.91 7.53Q27.30 7.41 26.60 6.94L26.60 6.94L26.60 6.94Q25.90 6.47 25.90 5.45L25.90 5.45L25.90 5.32L25.90 5.32Q25.90 4.10 26.75 3.50L26.75 3.50L26.75 3.50Q27.61 2.90 29.02 2.90L29.02 2.90L29.02 2.90Q32.14 2.90 32.14 5.45L32.14 5.45L32.14 5.52L29.97 5.52L29.97 5.52Q29.97 4.58 29.02 4.58L29.02 4.58L29.02 4.58Q28.57 4.58 28.33 4.76L28.33 4.76L28.33 4.76Q28.08 4.94 28.08 5.25L28.08 5.25L28.08 5.25Q28.08 5.60 28.31 5.75L28.31 5.75L28.31 5.75Q28.53 5.91 29.15 5.96L29.15 5.96L29.15 5.96Q30.72 6.09 31.48 6.53L31.48 6.53L31.48 6.53Q32.24 6.97 32.24 8.06L32.24 8.06L32.24 8.19L32.24 8.19Q32.24 9.37 31.42 10.02L31.42 10.02L31.42 10.02Q30.60 10.68 29.02 10.68L29.02 10.68L29.02 10.68Q27.44 10.68 26.63 10.01L26.63 10.01L26.63 10.01Q25.82 9.34 25.82 8.22L25.82 8.22L25.82 8.15L28.01 8.15L28.01 8.15Q28.01 9.00 29.02 9.00ZM40.08 6.59L40.08 7.59L35.35 7.59L35.35 7.59Q35.41 8.34 35.76 8.67L35.76 8.67L35.76 8.67Q36.11 9.00 36.75 9.00L36.75 9.00L36.75 9.00Q37.31 9.00 37.65 8.74L37.65 8.74L37.65 8.74Q38.00 8.47 38.00 8.12L38.00 8.12L40.08 8.12L40.08 8.18L40.08 8.18Q40.08 9.27 39.19 9.97L39.19 9.97L39.19 9.97Q38.30 10.68 36.74 10.68L36.74 10.68L36.74 10.68Q34.96 10.68 34.05 9.67L34.05 9.67L34.05 9.67Q33.14 8.67 33.14 6.99L33.14 6.99L33.14 6.59L33.14 6.59Q33.14 4.93 34.05 3.91L34.05 3.91L34.05 3.91Q34.96 2.90 36.65 2.90L36.65 2.90L36.65 2.90Q38.35 2.90 39.21 3.91L39.21 3.91L39.21 3.91Q40.08 4.91 40.08 6.59L40.08 6.59ZM37.86 5.99L37.86 5.99Q37.76 4.58 36.61 4.58L36.61 4.58L36.61 4.58Q35.46 4.58 35.36 5.99L35.36 5.99L37.86 5.99ZM49.24 4.76L49.24 5.32L49.24 5.32Q49.24 8.13 48.17 9.32L48.17 9.32L48.17 9.32Q47.10 10.50 44.63 10.50L44.63 10.50L41.29 10.50L41.29-0.42L44.63-0.42L44.63-0.42Q47.10-0.42 48.17 0.76L48.17 0.76L48.17 0.76Q49.24 1.95 49.24 4.76L49.24 4.76ZM43.55 1.54L43.55 8.54L44.51 8.54L44.51 8.54Q45.88 8.54 46.40 7.78L46.40 7.78L46.40 7.78Q46.93 7.03 46.93 5.32L46.93 5.32L46.93 4.76L46.93 4.76Q46.93 3.05 46.40 2.30L46.40 2.30L46.40 2.30Q45.88 1.54 44.51 1.54L44.51 1.54L43.55 1.54ZM57.15 6.59L57.15 7.59L52.42 7.59L52.42 7.59Q52.47 8.34 52.82 8.67L52.82 8.67L52.82 8.67Q53.17 9.00 53.82 9.00L53.82 9.00L53.82 9.00Q54.38 9.00 54.72 8.74L54.72 8.74L54.72 8.74Q55.06 8.47 55.06 8.12L55.06 8.12L57.15 8.12L57.15 8.18L57.15 8.18Q57.15 9.27 56.26 9.97L56.26 9.97L56.26 9.97Q55.37 10.68 53.80 10.68L53.80 10.68L53.80 10.68Q52.02 10.68 51.11 9.67L51.11 9.67L51.11 9.67Q50.20 8.67 50.20 6.99L50.20 6.99L50.20 6.59L50.20 6.59Q50.20 4.93 51.11 3.91L51.11 3.91L51.11 3.91Q52.02 2.90 53.72 2.90L53.72 2.90L53.72 2.90Q55.41 2.90 56.28 3.91L56.28 3.91L56.28 3.91Q57.15 4.91 57.15 6.59L57.15 6.59ZM54.92 5.99L54.92 5.99Q54.82 4.58 53.68 4.58L53.68 4.58L53.68 4.58Q52.53 4.58 52.43 5.99L52.43 5.99L54.92 5.99ZM62.96 10.50L59.86 10.50L57.71 3.08L59.99 3.08L61.42 8.72L62.83 3.08L65.13 3.08L62.96 10.50Z"></path></g><!----><g data-v-423bf9ae="" id="9afcaf99-8fd8-4f81-ba53-b26ba36a76f0" transform="matrix(1.0739621746903745,0,0,1.0739621746903745,-8.595374070155813,-8.59895807334805)" stroke="none" fill="#FFCE1F"><path d="M50 77.1c3.6 0 7.1-.7 10.4-2.1 13.8-5.7 20.4-21.6 14.7-35.5C70.9 29.4 61 22.9 50 22.9c-3.6 0-7.1.7-10.4 2.1-13.8 5.7-20.4 21.6-14.7 35.5C29.1 70.6 39 77.1 50 77.1zM30.3 61.7h5.5c1.1 3.3 2.6 6.5 4.4 9.1-4-2-7.5-5.1-9.9-9.1zm41.4-19.1c1.7 5 1.6 10.2 0 14.9h-6c.5-2.5.8-5.1.8-7.5 0-2.5-.2-5-.7-7.4h5.9zM62.2 50c0 2.4-.3 5-1 7.5h-9V42.6h9.2c.6 2.3.8 4.8.8 7.4zM48 72.2c-3.1-1.4-5.9-5.6-7.7-10.5H48v10.5zm4.3 0V61.7H60c-1.9 5-4.7 9.2-7.7 10.5zm0-33.9V27.6c3.2 1.3 6.2 5.4 8 10.7h-8zM48 27.6v10.7h-8c1.8-5.3 4.8-9.4 8-10.7zm0 15v14.9h-9c-.6-2.5-1-5.1-1-7.5 0-2.5.3-5 .8-7.4H48zM34.7 57.4h-6.3c-1.7-5-1.6-10.2 0-14.9h6.1c-.5 2.5-.7 5-.7 7.5 0 2.3.3 4.8.9 7.4zm25.5 13.1c.6-.9 1.3-1.9 1.8-3 .9-1.8 1.8-3.7 2.4-5.8h5.2c-2.1 3.7-5.3 6.8-9.4 8.8zm9.5-32.2h-4.9c-.7-2.3-1.6-4.6-2.7-6.5-.4-.7-.8-1.3-1.2-1.9 3.6 1.9 6.6 4.8 8.8 8.4zm-30.2-8.7c-.5.7-.9 1.4-1.3 2.1-1.1 2-2 4.2-2.7 6.5h-5.2c2.2-3.5 5.3-6.5 9.2-8.6zm10-21.5c10.8-.1 21.1 3.9 29 11.2v-3.2c0-1.2.9-2.1 2.1-2.1 1.2 0 2.1.9 2.1 2.1l.1 8.3c0 1.2-.9 2.1-2.1 2.1l-8.3.1c-1.2 0-2.1-.9-2.1-2.1 0-1.2.9-2.1 2.1-2.1h3.2c-7.1-6.5-16.2-10.1-25.9-10-10.1.1-19.5 4.1-26.5 11.3-10.3 10.4-13.6 25.4-8.7 39.1.4 1.1-.2 2.3-1.3 2.7-.2.1-.5.1-.7.1-.9 0-1.7-.5-2-1.4C7.9 56.9 7.4 49 9 41.4c1.6-7.8 5.5-15 11.1-20.7 7.7-8 18.2-12.5 29.4-12.6zm27.4 68.2c10.2-10.4 13.4-25.4 8.5-39.1-.4-1.1.2-2.3 1.3-2.7 1.1-.4 2.3.2 2.7 1.3C92 43.1 92.6 51 91 58.6c-1.6 7.8-5.5 15-11.1 20.7-7.8 8-18.3 12.5-29.5 12.6h-.5c-10.7 0-20.7-4-28.5-11.2v3.2c0 1.2-.9 2.1-2.1 2.1-1.2 0-2.1-.9-2.1-2.1l-.1-8.3c0-.6.2-1.1.6-1.5.4-.4.9-.6 1.5-.6l8.3-.1c1.2 0 2.1.9 2.1 2.1 0 1.2-.9 2.1-2.1 2.1h-3.2c15.1 13.8 38.4 13.3 52.6-1.3z"></path></g><!----></svg>